<?xml version="1.0" encoding="utf-8"?>
<!-- Generator: Adobe Illustrator 23.0.2, SVG Export Plug-In . SVG Version: 6.00 Build 0)  -->
<svg version="1.1" id="Camada_1" xmlns="http://www.w3.org/2000/svg" xmlns:xlink="http://www.w3.org/1999/xlink" x="0px" y="0px"
	 viewBox="0 0 1280 800" style="enable-background:new 0 0 1280 800;" xml:space="preserve">
<style type="text/css">
	.st0{fill:#4FBE05;}
	.st1{fill:#FEFEFE;}
</style>
<g>
	<path id="n" class="st0" d="M1149.96,487.9c-0.53-25.22,1.16-55.55-1.45-85.81c-1.42-16.43-4.09-32.61-9.16-48.39
		c-8.35-25.93-25.49-41.64-52.5-46.26c-19.21-3.29-38.37-3.15-57.35,1.5c-24.22,5.93-40.79,20.83-50.44,43.69
		c-9.08,21.52-12.54,44.2-13.13,67.28c-1.39,53.92-0.31,107.87-0.59,161.8c-0.02,4.36-0.11,8.69-1.61,12.88
		c-3.1,8.62-10.27,13.99-18.9,14.04c-8.62,0.05-15.8-5.23-18.88-13.98c-1.19-3.4-1.71-6.92-1.71-10.53
		c0.04-51.14-0.19-102.28,0.18-153.42c0.21-28.38,3.54-56.39,13.3-83.34c15.06-41.57,44.07-67.04,87.4-75.97
		c26.73-5.51,53.46-5.24,79.92,1.63c37.57,9.76,61.5,33.9,73.43,70.53c8.6,26.42,11.85,53.69,12.11,81.26
		c0.51,53,0.34,106,0.44,159.01c0.01,3.1-0.17,6.18-1.07,9.22c-3.01,10.17-10.99,16.15-21,15.57c-8.86-0.51-16.66-7.97-18.27-17.75
		c-0.53-3.2-0.67-6.5-0.68-9.75C1149.93,551.73,1149.96,522.35,1149.96,487.9z"/>
	<g id="i">
		<path class="st0" d="M880.03,439c0,47.4-0.01,94.79,0.01,142.19c0,4.38-0.27,8.69-1.7,12.86c-3.02,8.81-10.45,14.36-19.17,14.34
			c-8.54-0.02-16.09-5.86-18.89-14.68c-1.09-3.43-1.41-6.97-1.41-10.58c0.03-95.88,0.04-191.77,0.04-287.65
			c0-3.44,0.23-6.83,1.09-10.16c2.33-8.96,10.01-15.54,18.51-15.86c9.19-0.34,16.82,5.17,19.96,14.47
			c1.31,3.87,1.62,7.87,1.62,11.94c-0.03,47.71-0.02,95.42-0.02,143.13C880.06,439,880.05,439,880.03,439z"/>
		<path class="st0" d="M829.2,248.68c-11.56-16.84-11.55-36.64-0.27-49.67c4.65-5.37,10.5-9.15,17.05-11.84
			c5.88-2.42,11.76-4.87,17.09-8.39c10.18-6.72,17.71-15.04,16.39-28.45c1.92-0.02,2.06,1.52,2.66,2.42
			c8.25,12.41,14.64,25.78,16.85,40.53c2.06,13.73,2.02,27.57-5.12,40.35c-6.15,11-15.98,16.55-27.83,19.13
			c-8.27,1.8-16.64,1.84-25.02,0.99c-1.92-0.19-3.59-0.39-3.3-3.24c1.65-16.31,5.5-31.77,16.36-44.69c2.74-3.26,5.99-6.01,8.87-9
			C840.19,206.21,833.08,226.02,829.2,248.68z"/>
	</g>
	<path id="g" class="st0" d="M748.59,527.73c-31.17,24.15-66.46,27.92-103.25,25.35c-14.02-0.98-27.66-3.99-40.75-9.14
		c-29.36-11.55-49.05-32.79-58.44-62.51c-14.32-45.3-15.47-91.27-0.29-136.54c13.48-40.21,43.13-62.5,84.39-70.01
		c11.66-2.12,23.44-2.66,35.27-2.64c38.86,0.04,77.72,0.02,116.58,0c4.07,0,8.07,0.22,11.92,1.68c7.29,2.76,12,9.25,12.07,16.65
		c0.07,7.5-4.37,14.08-11.56,17.02c-3.95,1.62-8.11,1.95-12.34,1.95c-40.57-0.01-81.14,0-121.7,0.06
		c-11.4,0.02-22.64,1.38-33.56,4.77c-23.89,7.41-37.32,24.63-44.11,47.79c-6.56,22.4-6.9,45.34-5.35,68.39
		c0.9,13.36,3.05,26.49,7.32,39.25c7.67,22.91,22.98,37.59,46.61,43.12c33.57,7.86,65.07,3.06,94.11-15.95
		c14.57-9.54,21.88-22.85,22.53-40.49c1.28-34.81,0.4-69.63,0.72-104.44c0.04-4.86,0.29-9.65,2.48-14.09
		c3.77-7.65,9.72-11.97,18.48-11.72c8.56,0.25,14.13,4.8,17.53,12.41c1.75,3.92,2.23,8.07,2.24,12.29
		c0.08,80.36,0.28,160.71,0.12,241.07c-0.04,22.05-3.6,43.66-12.26,64.13c-14.63,34.57-40.22,57.35-76.27,67.03
		c-41.93,11.25-83.95,9.26-124.64-5.76c-39.87-14.72-59.55-45.05-61.6-87.02c-1.1-22.54,2-44.36,13.73-64.22
		c5.85-9.91,13.63-18.1,22.96-24.79c5.31-3.8,11.1-6.38,17.85-5.13c13.51,2.51,19.53,17.28,12.08,29.48
		c-1.47,2.41-3.33,4.52-5.64,6.15c-7.53,5.32-12.35,12.7-15.32,21.19c-5.17,14.83-6.28,30.09-3.12,45.49
		c3.87,18.84,15.19,32.49,32.11,40.55c32.46,15.45,66.54,18.13,100.65,6.92c30.72-10.09,47.49-33.54,54.76-64.32
		c2.65-11.23,3.74-22.67,3.8-34.19c0.09-18.81,0.06-37.61,0.06-56.42C748.78,530.2,748.68,529.32,748.59,527.73z"/>
	<g id="o">
		<path class="st0" d="M497.65,438.46c-0.21,30.26-2.63,60.19-12.74,89.03c-16.64,47.5-50.57,73.34-99.97,79.6
			c-24.27,3.07-48.41,2.29-72.05-4.47c-39.59-11.32-64.8-37.61-77.9-76.11c-9.47-27.83-12.21-56.65-12.36-85.83
			c-0.15-29.65,2.21-58.97,11.33-87.4c15.92-49.68,50.11-77.24,101.61-83.94c25.79-3.36,51.22-1.97,76.03,5.92
			c37.12,11.8,60.55,37.47,73.25,73.71C495.02,377.97,497.5,408.05,497.65,438.46z"/>
		<path class="st1" d="M456.73,438.26c-0.45,24.59-1.84,49.05-9.12,72.79c-11.46,37.38-33.46,55.63-72.3,59.55
			c-16.35,1.65-32.58,0.91-48.58-3.22c-28.76-7.43-44.94-27.25-53.5-54.47c-7.3-23.2-9.35-47.13-9.51-71.3
			c-0.17-26.36,1.65-52.43,9.44-77.84c11.06-36.09,36.86-56.21,74.59-58.07c13.86-0.68,27.63-0.52,41.28,2.39
			c30.19,6.45,48.31,25.6,57.62,54.27C454.68,387.07,456.31,412.57,456.73,438.26z"/>
	</g>
	<path id="l" class="st0" d="M78.13,336.71c0-66.06,0-132.12,0-198.18c0-3.26,0.03-6.49,0.84-9.72
		c2.66-10.61,10.49-16.85,20.75-16.34c9.53,0.47,17.25,8,18.57,18.38c0.47,3.69,0.58,7.44,0.58,11.16
		c0.03,127.46,0.02,254.91,0.04,382.37c0,9.33,0.3,18.62,2.53,27.79c1.61,6.62,5.4,10.47,12.07,11.96
		c9.01,2.01,18.13,2.53,27.3,2.66c6.84,0.09,13.68-0.09,20.52,0.1c11.14,0.3,19.64,7.75,20.17,17.44
		c0.54,9.87-6.38,18.75-17.51,19.3c-24.83,1.21-49.72,1.46-73.99-5.71c-12.64-3.73-20.69-12.03-25.17-24.15
		c-5.37-14.51-6.67-29.63-6.68-44.93C78.11,464.79,78.13,400.75,78.13,336.71z"/>
</g>
</svg>
