<svg width="517" height="117" viewBox="0 0 517 117" fill="none" xmlns="http://www.w3.org/2000/svg">
<path d="M10.3154 76.3185C10.3154 63.5443 12.7793 54.8367 17.7072 50.1959C21.1041 47.0382 26.032 45.4355 32.4909 45.3876H32.5627C41.6051 45.5312 48.6381 49.0237 53.6617 55.8654C53.9966 57.4442 54.7621 58.6164 55.9582 59.3819C56.7715 59.8603 57.6327 60.0995 58.5417 60.0995C58.8288 60.0995 59.1397 60.0756 59.4747 60.0278C60.7664 59.7885 61.7472 59.1666 62.417 58.1619C62.8955 57.3964 63.1347 56.5352 63.1347 55.5783C63.1347 55.0999 63.0629 54.5736 62.9194 53.9995C57.8001 42.7084 47.6812 36.9432 32.5627 36.704H32.3474C23.3049 36.7997 16.1523 39.2876 10.8895 44.1676C4.14359 50.4351 0.770616 61.1521 0.770616 76.3185V76.3903C0.770616 91.5567 4.14359 102.274 10.8895 108.541C16.1523 113.421 23.3049 115.909 32.3474 116.005H32.5627C47.6812 115.765 57.8001 110 62.9194 98.7093C63.0629 98.1351 63.1347 97.6089 63.1347 97.1304C63.1347 96.1736 62.8955 95.3124 62.417 94.5469C61.7472 93.5422 60.7664 92.9202 59.4747 92.681C59.1397 92.6331 58.8288 92.6092 58.5417 92.6092C57.6327 92.6092 56.7715 92.8484 55.9582 93.3269C54.7621 94.0924 53.9966 95.2645 53.6617 96.8434C48.6381 103.685 41.6051 107.178 32.5627 107.321H32.4909C26.032 107.273 21.1041 105.671 17.7072 102.513C12.7793 97.872 10.3154 89.1406 10.3154 76.3185ZM101.176 36.704C110.027 36.7997 117.06 39.2397 122.275 44.0241C128.782 50.0524 132.203 59.9799 132.537 73.8067V110.335C132.537 112.105 132.035 113.517 131.03 114.569C130.169 115.526 129.093 116.005 127.801 116.005C126.509 116.005 125.409 115.526 124.5 114.569C123.495 113.517 122.993 112.105 122.993 110.335V88.6621C122.993 85.3131 120.744 82.3229 116.247 79.6915C111.702 77.1079 106.463 75.8161 100.53 75.8161C93.4493 75.8161 88.043 77.9452 84.3112 82.2032C81.6798 85.1695 80.3641 88.4708 80.3641 92.1069C80.3641 93.1594 80.4598 94.212 80.6512 95.2645C81.1774 97.9916 82.2539 100.336 83.8806 102.298C83.9763 102.393 84.072 102.489 84.1677 102.585C87.6124 105.79 92.014 106.819 97.3725 105.671C102.779 104.474 107.683 102.202 112.084 98.8528C113.328 98.0395 114.62 97.6328 115.96 97.6328H116.534C117.921 97.7763 119.022 98.3026 119.835 99.2116C120.409 99.8336 120.696 100.551 120.696 101.365C120.696 101.699 120.648 102.034 120.553 102.369C120.218 103.709 119.165 104.929 117.395 106.029C111.367 110.862 104.74 113.732 97.516 114.641C96.1764 114.833 94.8607 114.928 93.5689 114.928C88.0191 114.928 83.139 113.278 78.9288 109.976C74.8143 106.197 72.2785 101.795 71.3217 96.7716C70.9868 95.0971 70.8193 93.4704 70.8193 91.8916C70.8193 86.3896 72.8287 81.3421 76.8476 76.7491C82.4931 70.2902 90.3873 67.0608 100.53 67.0608C109.812 67.0608 117.108 69.5486 122.419 74.5244C122.61 74.7157 122.801 74.9071 122.993 75.0985V72.2996C122.993 68.5678 122.347 64.5968 121.055 60.3866C119.62 55.6501 117.778 52.2293 115.529 50.1241C112.18 47.0622 107.372 45.4833 101.104 45.3876C92.1097 45.5312 85.1006 49.0237 80.077 55.8654C79.7421 57.4442 78.9766 58.6164 77.7806 59.3819C76.9672 59.8603 76.106 60.0995 75.197 60.0995C74.9099 60.0995 74.599 60.0756 74.2641 60.0278C72.9723 59.7885 71.9915 59.1666 71.3217 58.1619C70.8432 57.3964 70.604 56.5352 70.604 55.5783C70.604 55.0999 70.6758 54.5736 70.8193 53.9995C75.9386 42.7084 86.0336 36.9432 101.104 36.704H101.176ZM173.019 36.704C180.291 36.704 186.367 38.235 191.247 41.297C192.97 42.4453 194.022 43.6892 194.405 45.0288C194.501 45.3637 194.548 45.6747 194.548 45.9618C194.548 46.7751 194.238 47.5167 193.616 48.1865C192.802 49.0955 191.702 49.5979 190.314 49.6936H189.668C188.377 49.6936 187.109 49.3108 185.865 48.5453C182.612 46.4402 178.33 45.3876 173.019 45.3876C166.464 45.3876 161.465 46.9665 158.02 50.1241C152.996 54.765 150.485 63.4964 150.485 76.3185C150.485 89.1406 152.949 97.872 157.876 102.513C161.321 105.718 166.369 107.321 173.019 107.321C179.621 107.321 184.645 105.718 188.09 102.513C193.017 97.872 195.481 89.1406 195.481 76.3185V6.27553C195.481 4.50532 195.96 3.09394 196.917 2.04138C197.826 1.08451 198.926 0.60607 200.218 0.60607C201.51 0.60607 202.61 1.08451 203.519 2.04138C204.476 3.04609 204.954 4.45748 204.954 6.27553V76.6056C204.954 91.6763 201.605 102.321 194.907 108.541C189.597 113.517 182.301 116.005 173.019 116.005C163.737 116.005 156.441 113.517 151.13 108.541C144.385 102.274 141.012 91.5327 141.012 76.3185C141.012 61.1042 144.408 50.3394 151.202 44.0241C156.513 39.1441 163.785 36.704 173.019 36.704ZM244.431 36.704C253.282 36.7997 260.315 39.2397 265.53 44.0241C272.037 50.0524 275.458 59.9799 275.793 73.8067V110.335C275.793 112.105 275.29 113.517 274.286 114.569C273.424 115.526 272.348 116.005 271.056 116.005C269.764 116.005 268.664 115.526 267.755 114.569C266.75 113.517 266.248 112.105 266.248 110.335V88.6621C266.248 85.3131 263.999 82.3229 259.502 79.6915C254.957 77.1079 249.718 75.8161 243.785 75.8161C236.704 75.8161 231.298 77.9452 227.566 82.2032C224.935 85.1695 223.619 88.4708 223.619 92.1069C223.619 93.1594 223.715 94.212 223.906 95.2645C224.433 97.9916 225.509 100.336 227.136 102.298C227.231 102.393 227.327 102.489 227.423 102.585C230.867 105.79 235.269 106.819 240.628 105.671C246.034 104.474 250.938 102.202 255.339 98.8528C256.583 98.0395 257.875 97.6328 259.215 97.6328H259.789C261.176 97.7763 262.277 98.3026 263.09 99.2116C263.664 99.8336 263.951 100.551 263.951 101.365C263.951 101.699 263.903 102.034 263.808 102.369C263.473 103.709 262.42 104.929 260.65 106.029C254.622 110.862 247.995 113.732 240.771 114.641C239.431 114.833 238.116 114.928 236.824 114.928C231.274 114.928 226.394 113.278 222.184 109.976C218.069 106.197 215.534 101.795 214.577 96.7716C214.242 95.0971 214.074 93.4704 214.074 91.8916C214.074 86.3896 216.084 81.3421 220.103 76.7491C225.748 70.2902 233.642 67.0608 243.785 67.0608C253.067 67.0608 260.363 69.5486 265.674 74.5244C265.865 74.7157 266.056 74.9071 266.248 75.0985V72.2996C266.248 68.5678 265.602 64.5968 264.31 60.3866C262.875 55.6501 261.033 52.2293 258.784 50.1241C255.435 47.0622 250.627 45.4833 244.359 45.3876C235.365 45.5312 228.356 49.0237 223.332 55.8654C222.997 57.4442 222.232 58.6164 221.036 59.3819C220.222 59.8603 219.361 60.0995 218.452 60.0995C218.165 60.0995 217.854 60.0756 217.519 60.0278C216.227 59.7885 215.247 59.1666 214.577 58.1619C214.098 57.3964 213.859 56.5352 213.859 55.5783C213.859 55.0999 213.931 54.5736 214.074 53.9995C219.194 42.7084 229.289 36.9432 244.359 36.704H244.431ZM310.963 107.321V107.249C312.59 107.249 314.241 107.058 315.915 106.675C320.317 105.671 323.714 103.565 326.106 100.36C328.02 97.7763 328.976 95.1688 328.976 92.5375C328.976 90.4323 328.378 88.3033 327.182 86.1503C326.369 84.6193 325.197 83.2558 323.666 82.0597C321.752 80.5766 318.881 79.0216 315.054 77.395C305.629 73.424 299.72 70.1945 297.328 67.7067C293.979 64.2619 292.304 60.0038 292.304 54.9324C292.304 50.0045 293.907 45.8661 297.113 42.517C300.366 39.0244 304.648 37.1346 309.959 36.8476C310.485 36.7997 310.987 36.7758 311.466 36.7758C316.154 36.7758 320.245 38.1872 323.738 41.0099C327.996 44.4547 330.125 49.0955 330.125 54.9324C330.125 56.6069 329.622 57.9226 328.618 58.8795C327.709 59.7407 326.608 60.1713 325.316 60.1713C323.977 60.1713 322.852 59.7407 321.943 58.8795C320.939 57.9226 320.436 56.6069 320.436 54.9324C320.436 52.1097 319.575 49.8371 317.853 48.1147C316.226 46.4402 314.073 45.6029 311.394 45.6029H310.533C307.806 45.7465 305.677 46.7273 304.146 48.5453C302.71 50.2198 301.993 52.3489 301.993 54.9324C301.993 57.803 302.83 60.1234 304.504 61.8937C306.035 63.4725 310.892 65.9604 319.073 69.3573C327.445 72.8977 333.019 77.1797 335.794 82.2032C337.756 85.6958 338.737 89.1645 338.737 92.6092C338.737 96.9151 337.182 101.149 334.072 105.312C330.388 110.24 325.245 113.517 318.642 115.144C316.059 115.765 313.499 116.076 310.963 116.076V116.005H310.748C295.629 115.765 285.511 110 280.391 98.7093C280.248 98.1351 280.176 97.6089 280.176 97.1304C280.176 96.1736 280.415 95.3124 280.894 94.5469C281.563 93.5422 282.544 92.9202 283.836 92.681C284.171 92.6331 284.482 92.6092 284.769 92.6092C285.678 92.6092 286.539 92.8484 287.353 93.3269C288.549 94.0924 289.314 95.2645 289.649 96.8434C294.673 103.685 301.706 107.178 310.748 107.321H310.963ZM364.362 38.0676H388.189C389.815 38.0676 391.107 38.5221 392.064 39.4311C392.925 40.2445 393.356 41.2252 393.356 42.3735C393.356 43.5696 392.925 44.5743 392.064 45.3876C391.107 46.2967 389.791 46.7512 388.117 46.7512H364.362V88.5904C364.362 94.6186 365.463 99.2356 367.664 102.441C369.912 105.742 373.548 107.393 378.572 107.393C383.117 107.393 386.37 106.292 388.332 104.092C389.432 102.896 390.7 102.202 392.136 102.01C392.375 101.963 392.59 101.939 392.782 101.939C393.882 101.939 394.839 102.25 395.652 102.872C396.657 103.589 397.207 104.546 397.303 105.742V106.029C397.303 107.225 396.776 108.422 395.724 109.618C391.849 113.924 386.131 116.076 378.572 116.076C370.247 116.076 364.028 113.23 359.913 107.536C356.516 102.8 354.818 96.4845 354.818 88.5904V46.7512H345.991C344.364 46.7512 343.072 46.2967 342.115 45.3876C341.254 44.5743 340.823 43.5696 340.823 42.3735C340.823 41.2252 341.254 40.2445 342.115 39.4311C343.072 38.5221 344.364 38.0676 345.991 38.0676H354.818L354.889 6.3473C354.889 4.57709 355.368 3.1657 356.325 2.11314C357.234 1.15627 358.334 0.677836 359.626 0.677836C360.918 0.677836 362.018 1.15627 362.927 2.11314C363.884 3.11786 364.362 4.52924 364.362 6.3473V38.0676ZM411.733 45.3159C418.001 39.6225 425.512 36.7758 434.268 36.7758C439.1 36.7758 443.334 37.4456 446.97 38.7852C448.071 39.2158 448.812 39.9813 449.195 41.0817C449.338 41.5601 449.41 42.0147 449.41 42.4453C449.41 43.0672 449.291 43.6653 449.051 44.2394C448.238 46.1531 446.97 47.11 445.248 47.11C444.578 47.11 443.836 46.9665 443.023 46.6794C440.583 45.8661 437.665 45.4594 434.268 45.4594C428.67 45.4594 423.455 47.0622 418.623 50.2677C414.03 53.3297 411.733 56.296 411.733 59.1666V110.407C411.733 112.177 411.255 113.589 410.298 114.641C409.389 115.598 408.289 116.076 406.997 116.076C405.705 116.076 404.605 115.598 403.696 114.641C402.739 113.589 402.26 112.177 402.26 110.407V42.4453C402.26 40.6272 402.739 39.1919 403.696 38.1393C404.605 37.2303 405.705 36.7758 406.997 36.7758C408.289 36.7758 409.389 37.2303 410.298 38.1393C411.255 39.1919 411.733 40.6272 411.733 42.4453V45.3159ZM484.222 45.4594C477.715 45.4594 472.716 47.0382 469.223 50.1959C464.247 54.8367 461.759 63.5682 461.759 76.3903C461.759 89.2123 464.223 97.9438 469.151 102.585C472.596 105.79 477.62 107.393 484.222 107.393C490.824 107.393 495.848 105.79 499.293 102.585C504.221 97.9438 506.685 89.2123 506.685 76.3903C506.685 63.5682 504.197 54.8367 499.221 50.1959C495.728 47.0382 490.729 45.4594 484.222 45.4594ZM484.222 116.076C474.94 116.076 467.644 113.589 462.334 108.613C455.588 102.345 452.215 91.6045 452.215 76.3903C452.215 61.176 455.636 50.4112 462.477 44.0959C467.788 39.2158 475.036 36.7758 484.222 36.7758C493.408 36.7758 500.656 39.2158 505.967 44.0959C512.809 50.4112 516.229 61.176 516.229 76.3903C516.229 91.6045 512.856 102.345 506.11 108.613C500.8 113.589 493.504 116.076 484.222 116.076Z" fill="#4FBE05"/>
</svg>
